<svg width="255" height="248" viewBox="0 0 255 248" fill="none" xmlns="http://www.w3.org/2000/svg">
<path d="M97.5725 198.812C79.1928 192.94 63.002 181.609 51.0473 166.254C39.0927 150.899 31.9112 132.209 30.4109 112.548C28.9107 92.886 33.1591 73.1359 42.619 55.7949C52.0788 38.4538 66.3252 24.3007 83.5566 15.1252" stroke="#D8D8D8" stroke-width="10" stroke-linecap="round" stroke-linejoin="round"/>
<path d="M216.816 152.954C207.089 170.029 192.515 183.981 174.937 193.043C157.359 202.106 137.565 205.873 118.06 203.868C98.5549 201.863 80.2136 194.177 65.3558 181.78C50.498 169.384 39.791 152.834 34.5887 134.224" stroke="#408509" stroke-width="10" stroke-linecap="round" stroke-linejoin="round"/>
<path d="M174.601 19C192.18 28.0025 206.693 41.8723 216.305 58.8553C225.917 75.8382 230.195 95.1717 228.6 114.411C227.005 133.65 219.608 151.931 207.343 166.941" stroke="#E9E007" stroke-width="10" stroke-linecap="round" stroke-linejoin="round"/>
</svg>
