<svg width="270" height="270" viewBox="0 0 270 270" fill="none" xmlns="http://www.w3.org/2000/svg">
<path d="M97.1501 247.998C74.4948 240.416 54.5375 225.789 39.802 205.965C25.0663 186.141 16.2142 162.011 14.3649 136.627C12.5157 111.243 17.7524 85.7447 29.4129 63.3567C41.0734 40.9687 58.6339 22.6964 79.8739 10.8504" stroke="#D8D8D8" stroke-width="10" stroke-linecap="round" stroke-linejoin="round"/>
<path d="M252.612 167.692C244.57 191.624 229.962 212.704 210.635 228.265C191.308 243.825 168.129 253.17 144.031 255.115C119.934 257.061 95.9977 251.52 75.2515 239.193C54.5052 226.869 37.8802 208.31 27.4785 185.868" stroke="#408509" stroke-width="10" stroke-linecap="round" stroke-linejoin="round"/>
<path d="M189.404 13.6533C211.355 24.6788 229.684 42.0895 242.074 63.6835C254.466 85.2775 260.361 110.085 259.016 134.969C257.67 159.853 249.143 183.695 234.514 203.482" stroke="#E9E007" stroke-width="11" stroke-linecap="round" stroke-linejoin="round"/>
</svg>
